<?xml version="1.0" encoding="UTF-8" standalone="no"?>
<svg
   width="168mm"
   height="86mm"
   viewBox="0 -86 168 86"
   version="1.1"
   id="svg26855"
   sodipodi:docname="acrylic.svg"
   inkscape:version="1.2 (1:1.2.1+202207142221+cd75a1ee6d)"
   xmlns:inkscape="http://www.inkscape.org/namespaces/inkscape"
   xmlns:sodipodi="http://sodipodi.sourceforge.net/DTD/sodipodi-0.dtd"
   xmlns="http://www.w3.org/2000/svg"
   xmlns:svg="http://www.w3.org/2000/svg">
  <defs
     id="defs26859" />
  <sodipodi:namedview
     id="namedview26857"
     pagecolor="#ffffff"
     bordercolor="#666666"
     borderopacity="1.0"
     inkscape:showpageshadow="2"
     inkscape:pageopacity="0.0"
     inkscape:pagecheckerboard="0"
     inkscape:deskcolor="#d1d1d1"
     inkscape:document-units="mm"
     showgrid="false"
     inkscape:zoom="1.2539395"
     inkscape:cx="233.66358"
     inkscape:cy="358.86898"
     inkscape:current-layer="svg26855">
    <inkscape:grid
       type="xygrid"
       id="grid29211" />
  </sodipodi:namedview>
  <title
     id="title26851">OpenSCAD Model</title>
  <g
     id="g30150">
    <path
       d="m 17.9503,-69.0005 -0.0993,-0.0039 -0.0991,-0.0079 -0.0987,-0.0119 -0.0982,-0.0157 -0.0974,-0.0197 -0.0967,-0.0235 -0.0955,-0.0273 -0.0945,-0.0311 -0.0931,-0.0348 -0.0916,-0.0385 -0.0901,-0.0421 -0.0883,-0.0457 -0.0864,-0.0491 -0.0844,-0.0525 -0.0822,-0.0559 -0.08,-0.059 -0.0775,-0.0622 -0.075,-0.0653 -0.0724,-0.0681 -0.0696,-0.071 -0.0667,-0.0737 -0.0637,-0.0763 -0.0607,-0.0788 -0.0575,-0.0811 -0.0542,-0.0833 -0.0508,-0.0855 -0.0474,-0.0873 -0.0439,-0.0892 -0.0403,-0.0909 -0.0367,-0.0924 -0.033,-0.0938 -0.0292,-0.095 -0.0254,-0.0961 -0.0215,-0.0971 -0.0177,-0.0978 -0.0138,-0.0985 -0.0099,-0.0989 -0.0059,-0.0992 -0.002,-0.0994 0.002,-0.0994 0.0059,-0.0992 0.0099,-0.0989 0.0138,-0.0985 0.0177,-0.0978 0.0215,-0.0971 0.0254,-0.0961 0.0292,-0.095 0.033,-0.0938 0.0367,-0.0924 0.0403,-0.0908 0.0439,-0.0892 0.0474,-0.0874 0.0508,-0.0854 0.0542,-0.0834 0.0575,-0.0811 0.0607,-0.0788 0.0637,-0.0763 0.0667,-0.0737 0.0696,-0.0709 0.0724,-0.0682 0.075,-0.0653 0.0775,-0.0622 0.08,-0.059 0.0822,-0.0559 0.0844,-0.0525 0.0864,-0.0491 0.0883,-0.0457 0.0901,-0.0421 0.0916,-0.0385 0.0931,-0.0348 0.0945,-0.0311 0.0955,-0.0273 0.0967,-0.0235 0.0974,-0.0197 0.0982,-0.0157 0.0987,-0.0118 0.0991,-0.0079 0.0993,-0.004 h 0.0994 l 0.0993,0.004 0.0991,0.0079 0.0987,0.0118 0.0982,0.0157 0.0974,0.0197 0.0966,0.0235 0.0956,0.0273 0.0944,0.0311 0.0931,0.0348 0.0917,0.0385 0.0901,0.0421 0.0883,0.0457 0.0864,0.0491 0.0844,0.0525 0.0822,0.0559 0.08,0.059 0.0775,0.0622 0.075,0.0653 0.0724,0.0682 0.0696,0.0709 0.0667,0.0737 0.0637,0.0763 0.0607,0.0788 0.0575,0.0811 0.0542,0.0834 0.0508,0.0854 0.0474,0.0874 0.0439,0.0892 0.0403,0.0908 0.0367,0.0924 0.0329,0.0938 0.0292,0.095 0.0255,0.0961 0.0215,0.0971 0.0177,0.0978 0.0138,0.0985 0.0099,0.0989 0.0059,0.0992 0.002,0.0994 -0.002,0.0994 -0.0059,0.0992 -0.0099,0.0989 -0.0138,0.0985 -0.0177,0.0978 -0.0215,0.0971 -0.0255,0.0961 -0.0292,0.095 -0.0329,0.0938 -0.0367,0.0924 -0.0403,0.0909 -0.0439,0.0892 -0.0474,0.0873 -0.0508,0.0855 -0.0542,0.0833 -0.0575,0.0811 -0.0607,0.0788 -0.0637,0.0763 -0.0667,0.0737 -0.0696,0.071 -0.0724,0.0681 -0.075,0.0653 -0.0775,0.0622 -0.08,0.059 -0.0822,0.0559 -0.0844,0.0525 -0.0864,0.0491 -0.0883,0.0457 -0.0901,0.0421 -0.0917,0.0385 -0.0931,0.0348 -0.0944,0.0311 -0.0956,0.0273 -0.0966,0.0235 -0.0974,0.0197 -0.0982,0.0157 -0.0987,0.0119 -0.0991,0.0079 -0.0993,0.0039 z"
       id="path30117"
       style="fill:#000000;stroke:none" />
    <path
       d="m 39.9503,-69.0005 -0.0993,-0.0039 -0.0991,-0.0079 -0.0987,-0.0119 -0.0982,-0.0157 -0.0974,-0.0197 -0.0967,-0.0235 -0.0955,-0.0273 -0.0945,-0.0311 -0.0931,-0.0348 -0.0916,-0.0385 -0.0901,-0.0421 -0.0883,-0.0457 -0.0864,-0.0491 -0.0844,-0.0525 -0.0822,-0.0559 -0.08,-0.059 -0.0775,-0.0622 -0.075,-0.0653 -0.0724,-0.0681 -0.0696,-0.071 -0.0667,-0.0737 -0.0637,-0.0763 -0.0607,-0.0788 -0.0575,-0.0811 -0.0542,-0.0833 -0.0508,-0.0855 -0.0474,-0.0873 -0.0439,-0.0892 -0.0403,-0.0909 -0.0367,-0.0924 -0.033,-0.0938 -0.0292,-0.095 -0.0254,-0.0961 -0.0215,-0.0971 -0.0177,-0.0978 -0.0138,-0.0985 -0.0099,-0.0989 -0.0059,-0.0992 -0.002,-0.0994 0.002,-0.0994 0.0059,-0.0992 0.0099,-0.0989 0.0138,-0.0985 0.0177,-0.0978 0.0215,-0.0971 0.0254,-0.0961 0.0292,-0.095 0.033,-0.0938 0.0367,-0.0924 0.0403,-0.0908 0.0439,-0.0892 0.0474,-0.0874 0.0508,-0.0854 0.0542,-0.0834 0.0575,-0.0811 0.0607,-0.0788 0.0637,-0.0763 0.0667,-0.0737 0.0696,-0.0709 0.0724,-0.0682 0.075,-0.0653 0.0775,-0.0622 0.08,-0.059 0.0822,-0.0559 0.0844,-0.0525 0.0864,-0.0491 0.0883,-0.0457 0.0901,-0.0421 0.0916,-0.0385 0.0931,-0.0348 0.0945,-0.0311 0.0955,-0.0273 0.0967,-0.0235 0.0974,-0.0197 0.0982,-0.0157 0.0987,-0.0118 0.0991,-0.0079 0.0993,-0.004 h 0.0994 l 0.0993,0.004 0.0991,0.0079 0.0987,0.0118 0.0982,0.0157 0.0974,0.0197 0.0966,0.0235 0.0956,0.0273 0.0944,0.0311 0.0931,0.0348 0.0917,0.0385 0.0901,0.0421 0.0883,0.0457 0.0864,0.0491 0.0844,0.0525 0.0822,0.0559 0.08,0.059 0.0775,0.0622 0.075,0.0653 0.0724,0.0682 0.0696,0.0709 0.0667,0.0737 0.0637,0.0763 0.0607,0.0788 0.0575,0.0811 0.0542,0.0834 0.0508,0.0854 0.0474,0.0874 0.0439,0.0892 0.0403,0.0908 0.0367,0.0924 0.0329,0.0938 0.0292,0.095 0.0255,0.0961 0.0215,0.0971 0.0177,0.0978 0.0138,0.0985 0.0099,0.0989 0.0059,0.0992 0.002,0.0994 -0.002,0.0994 -0.0059,0.0992 -0.0099,0.0989 -0.0138,0.0985 -0.0177,0.0978 -0.0215,0.0971 -0.0255,0.0961 -0.0292,0.095 -0.0329,0.0938 -0.0367,0.0924 -0.0403,0.0909 -0.0439,0.0892 -0.0474,0.0873 -0.0508,0.0855 -0.0542,0.0833 -0.0575,0.0811 -0.0607,0.0788 -0.0637,0.0763 -0.0667,0.0737 -0.0696,0.071 -0.0724,0.0681 -0.075,0.0653 -0.0775,0.0622 -0.08,0.059 -0.0822,0.0559 -0.0844,0.0525 -0.0864,0.0491 -0.0883,0.0457 -0.0901,0.0421 -0.0917,0.0385 -0.0931,0.0348 -0.0944,0.0311 -0.0956,0.0273 -0.0966,0.0235 -0.0974,0.0197 -0.0982,0.0157 -0.0987,0.0119 -0.0991,0.0079 -0.0993,0.0039 z"
       id="path30115"
       style="fill:#000000;stroke:none" />
    <path
       d="m 61.9503,-69.0005 -0.0993,-0.0039 -0.0991,-0.0079 -0.0987,-0.0119 -0.0982,-0.0157 -0.0974,-0.0197 -0.0967,-0.0235 -0.0955,-0.0273 -0.0945,-0.0311 -0.0931,-0.0348 -0.0916,-0.0385 -0.0901,-0.0421 -0.0883,-0.0457 -0.0864,-0.0491 -0.0844,-0.0525 -0.0822,-0.0559 -0.08,-0.059 -0.0775,-0.0622 -0.075,-0.0653 -0.0724,-0.0681 -0.0696,-0.071 -0.0667,-0.0737 -0.0637,-0.0763 -0.0607,-0.0788 -0.0575,-0.0811 -0.0542,-0.0833 -0.0508,-0.0855 -0.0474,-0.0873 -0.0439,-0.0892 -0.0403,-0.0909 -0.0367,-0.0924 -0.033,-0.0938 -0.0292,-0.095 -0.0254,-0.0961 -0.0215,-0.0971 -0.0177,-0.0978 -0.0138,-0.0985 -0.0099,-0.0989 -0.0059,-0.0992 -0.002,-0.0994 0.002,-0.0994 0.0059,-0.0992 0.0099,-0.0989 0.0138,-0.0985 0.0177,-0.0978 0.0215,-0.0971 0.0254,-0.0961 0.0292,-0.095 0.033,-0.0938 0.0367,-0.0924 0.0403,-0.0908 0.0439,-0.0892 0.0474,-0.0874 0.0508,-0.0854 0.0542,-0.0834 0.0575,-0.0811 0.0607,-0.0788 0.0637,-0.0763 0.0667,-0.0737 0.0696,-0.0709 0.0724,-0.0682 0.075,-0.0653 0.0775,-0.0622 0.08,-0.059 0.0822,-0.0559 0.0844,-0.0525 0.0864,-0.0491 0.0883,-0.0457 0.0901,-0.0421 0.0916,-0.0385 0.0931,-0.0348 0.0945,-0.0311 0.0955,-0.0273 0.0967,-0.0235 0.0974,-0.0197 0.0982,-0.0157 0.0987,-0.0118 0.0991,-0.0079 0.0993,-0.004 h 0.0994 l 0.0993,0.004 0.0991,0.0079 0.0987,0.0118 0.0982,0.0157 0.0974,0.0197 0.0966,0.0235 0.0956,0.0273 0.0944,0.0311 0.0931,0.0348 0.0917,0.0385 0.0901,0.0421 0.0883,0.0457 0.0864,0.0491 0.0844,0.0525 0.0822,0.0559 0.08,0.059 0.0775,0.0622 0.075,0.0653 0.0724,0.0682 0.0696,0.0709 0.0667,0.0737 0.0637,0.0763 0.0607,0.0788 0.0575,0.0811 0.0542,0.0834 0.0508,0.0854 0.0474,0.0874 0.0439,0.0892 0.0403,0.0908 0.0367,0.0924 0.0329,0.0938 0.0292,0.095 0.0255,0.0961 0.0215,0.0971 0.0177,0.0978 0.0138,0.0985 0.0099,0.0989 0.0059,0.0992 0.002,0.0994 -0.002,0.0994 -0.0059,0.0992 -0.0099,0.0989 -0.0138,0.0985 -0.0177,0.0978 -0.0215,0.0971 -0.0255,0.0961 -0.0292,0.095 -0.0329,0.0938 -0.0367,0.0924 -0.0403,0.0909 -0.0439,0.0892 -0.0474,0.0873 -0.0508,0.0855 -0.0542,0.0833 -0.0575,0.0811 -0.0607,0.0788 -0.0637,0.0763 -0.0667,0.0737 -0.0696,0.071 -0.0724,0.0681 -0.075,0.0653 -0.0775,0.0622 -0.08,0.059 -0.0822,0.0559 -0.0844,0.0525 -0.0864,0.0491 -0.0883,0.0457 -0.0901,0.0421 -0.0917,0.0385 -0.0931,0.0348 -0.0944,0.0311 -0.0956,0.0273 -0.0966,0.0235 -0.0974,0.0197 -0.0982,0.0157 -0.0987,0.0119 -0.0991,0.0079 -0.0993,0.0039 z"
       id="path30113"
       style="fill:#000000;stroke:none" />
  </g>
  <g
     id="g30175"
     style="stroke-width:0.01;stroke-dasharray:none">
    <path
       d="M 7.45001,-11.2507 7.35023,-11.2564 7.25095,-11.2678 7.15247,-11.2849 7.05511,-11.3075 6.95921,-11.3356 6.86508,-11.3692 6.77301,-11.4081 6.68332,-11.4522 6.5963,-11.5014 6.51222,-11.5554 6.43137,-11.6142 6.35399,-11.6774 6.28035,-11.745 6.21069,-11.8167 6.14525,-11.8922 6.08421,-11.9714 6.0278,-12.0539 5.97618,-12.1395 5.92955,-12.2279 5.88803,-12.3188 5.85176,-12.4119 5.82088,-12.507 5.79547,-12.6036 5.77562,-12.7016 5.7614,-12.8005 5.75285,-12.9001 5.75,-13 l 0.00285,-0.0999 0.00855,-0.0996 0.01422,-0.0989 0.01985,-0.098 0.02541,-0.0966 0.03088,-0.0951 0.03627,-0.0931 0.04152,-0.0909 0.04663,-0.0884 0.05162,-0.0856 0.05641,-0.0825 0.06104,-0.0792 0.06544,-0.0755 0.06966,-0.0717 0.07364,-0.0676 0.07738,-0.0632 0.08085,-0.0588 0.08408,-0.054 0.08702,-0.0491 0.08969,-0.0441 0.09207,-0.039 0.09413,-0.0335 0.0959,-0.0282 0.09736,-0.0226 0.09848,-0.0171 0.09928,-0.0114 0.09978,-0.0057 h 0.09996 l 0.09978,0.0057 0.09929,0.0114 0.09848,0.0171 0.09735,0.0226 0.0959,0.0282 0.09413,0.0335 0.09207,0.039 0.0897,0.0441 0.08702,0.0491 0.08407,0.054 0.08086,0.0588 0.07738,0.0632 0.07364,0.0676 0.06965,0.0717 0.06545,0.0755 0.06103,0.0792 0.05641,0.0825 0.05162,0.0856 0.04663,0.0884 0.04152,0.0909 0.03627,0.0931 0.03089,0.0951 0.0254,0.0966 0.01986,0.098 0.01422,0.0989 0.00854,0.0996 L 9.25,-13 l -0.00287,0.0999 -0.00854,0.0996 -0.01422,0.0989 -0.01986,0.098 -0.0254,0.0966 -0.03089,0.0951 -0.03627,0.0931 -0.04152,0.0909 -0.04663,0.0884 -0.05162,0.0856 -0.05641,0.0825 -0.06103,0.0792 -0.06545,0.0755 -0.06965,0.0717 -0.07364,0.0676 -0.07738,0.0632 -0.08086,0.0588 -0.08407,0.054 -0.08702,0.0492 -0.0897,0.0441 -0.09207,0.0389 -0.09413,0.0336 -0.0959,0.0281 -0.09735,0.0226 -0.09848,0.0171 -0.09929,0.0114 -0.09978,0.0057 z"
       id="path30145"
       style="fill:none;stroke:#0000ff;stroke-width:0.01;stroke-dasharray:none" />
    <path
       d="m 160.45,-11.2507 -0.1,-0.0057 -0.099,-0.0114 -0.099,-0.0171 -0.097,-0.0226 -0.096,-0.0281 -0.094,-0.0336 -0.092,-0.0389 -0.09,-0.0441 -0.087,-0.0492 -0.084,-0.054 -0.081,-0.0588 -0.077,-0.0632 -0.074,-0.0676 -0.069,-0.0717 -0.066,-0.0755 -0.061,-0.0792 -0.056,-0.0825 -0.052,-0.0856 -0.046,-0.0884 -0.042,-0.0909 -0.036,-0.0931 -0.031,-0.0951 -0.026,-0.0966 -0.019,-0.098 -0.015,-0.0989 -0.008,-0.0996 -0.003,-0.0999 0.003,-0.0999 0.008,-0.0996 0.015,-0.0989 0.019,-0.098 0.026,-0.0966 0.031,-0.0951 0.036,-0.0931 0.042,-0.0909 0.046,-0.0884 0.052,-0.0856 0.056,-0.0825 0.061,-0.0792 0.066,-0.0755 0.069,-0.0717 0.074,-0.0676 0.077,-0.0632 0.081,-0.0588 0.084,-0.054 0.087,-0.0491 0.09,-0.0441 0.092,-0.039 0.094,-0.0335 0.096,-0.0282 0.097,-0.0226 0.099,-0.0171 0.099,-0.0114 0.1,-0.0057 h 0.1 l 0.1,0.0057 0.099,0.0114 0.099,0.0171 0.097,0.0226 0.096,0.0282 0.094,0.0335 0.092,0.039 0.09,0.0441 0.087,0.0491 0.084,0.054 0.081,0.0588 0.077,0.0632 0.074,0.0676 0.069,0.0717 0.066,0.0755 0.061,0.0792 0.056,0.0825 0.052,0.0856 0.046,0.0884 0.042,0.0909 0.036,0.0931 0.031,0.0951 0.026,0.0966 0.019,0.098 0.015,0.0989 0.008,0.0996 0.003,0.0999 -0.003,0.0999 -0.008,0.0996 -0.015,0.0989 -0.019,0.098 -0.026,0.0966 -0.031,0.0951 -0.036,0.0931 -0.042,0.0909 -0.046,0.0884 -0.052,0.0856 -0.056,0.0825 -0.061,0.0792 -0.066,0.0755 -0.069,0.0717 -0.074,0.0676 -0.077,0.0632 -0.081,0.0588 -0.084,0.054 -0.087,0.0492 -0.09,0.0441 -0.092,0.0389 -0.094,0.0336 -0.096,0.0281 -0.097,0.0226 -0.099,0.0171 -0.099,0.0114 -0.1,0.0057 z"
       id="path30143"
       style="fill:none;stroke:#0000ff;stroke-width:0.01;stroke-dasharray:none" />
    <path
       d="m 61.8744,-31.4022 -0.1255,-0.0066 -0.1252,-0.0109 -0.1247,-0.0153 -0.1241,-0.0197 -0.1234,-0.024 -0.1224,-0.0282 -0.1214,-0.0325 -0.1202,-0.0368 -0.1188,-0.0409 -0.1173,-0.045 -0.1157,-0.0491 -0.1138,-0.0531 -0.112,-0.0571 -0.1099,-0.0609 -0.1077,-0.0647 -0.1054,-0.0685 -0.1029,-0.072 -0.1004,-0.0756 -0.0976,-0.0791 -0.0949,-0.0825 -0.0919,-0.0857 -0.0888,-0.0888 -0.0857,-0.0919 -0.0825,-0.0949 -0.0791,-0.0976 -0.0756,-0.1004 -0.072,-0.1029 -0.0685,-0.1054 -0.0647,-0.1077 -0.0609,-0.1099 -0.0571,-0.112 -0.0531,-0.1138 -0.0491,-0.1157 -0.045,-0.1173 -0.0409,-0.1188 -0.0368,-0.1202 -0.0325,-0.1214 -0.0282,-0.1224 -0.024,-0.1234 -0.0197,-0.1241 -0.0153,-0.1247 -0.0109,-0.1252 -0.0066,-0.1255 L 58.4,-35 l 0.0022,-0.1256 0.0066,-0.1255 0.0109,-0.1252 0.0153,-0.1247 0.0197,-0.1241 0.024,-0.1234 0.0282,-0.1224 0.0325,-0.1214 0.0368,-0.1202 0.0409,-0.1188 0.045,-0.1173 0.0491,-0.1156 0.0531,-0.1139 0.0571,-0.112 0.0609,-0.1099 0.0647,-0.1077 0.0685,-0.1054 0.072,-0.1029 0.0756,-0.1004 0.0791,-0.0976 0.0825,-0.0949 0.0857,-0.0919 0.0888,-0.0888 0.0919,-0.0857 0.0949,-0.0825 0.0976,-0.079 0.1004,-0.0757 0.1029,-0.072 0.1054,-0.0685 0.1077,-0.0647 0.1099,-0.0609 0.112,-0.0571 0.1138,-0.0531 0.1157,-0.0491 0.1173,-0.045 0.1188,-0.0409 0.1202,-0.0367 0.1214,-0.0326 0.1224,-0.0282 0.1234,-0.024 0.1241,-0.0197 0.1247,-0.0153 0.1252,-0.0109 0.1255,-0.0066 L 62,-38.6 l 0.1256,0.0022 0.1255,0.0066 0.1252,0.0109 0.1247,0.0153 0.1241,0.0197 0.1234,0.024 0.1224,0.0282 0.1214,0.0326 0.1202,0.0367 0.1188,0.0409 0.1173,0.045 0.1156,0.0491 0.1139,0.0531 0.112,0.0571 0.1099,0.0609 0.1077,0.0647 0.1054,0.0685 0.1029,0.072 0.1004,0.0757 0.0976,0.079 0.0949,0.0825 0.0919,0.0857 0.0888,0.0888 0.0857,0.0919 0.0825,0.0949 0.079,0.0976 0.0757,0.1004 0.072,0.1029 0.0685,0.1054 0.0647,0.1077 0.0609,0.1099 0.0571,0.112 0.0531,0.1139 0.0491,0.1156 0.045,0.1173 0.0409,0.1188 0.0367,0.1202 0.0326,0.1214 0.0282,0.1224 0.024,0.1234 0.0197,0.1241 0.0153,0.1247 0.0109,0.1252 0.0066,0.1255 L 65.6,-35 l -0.0022,0.1256 -0.0066,0.1255 -0.0109,0.1252 -0.0153,0.1247 -0.0197,0.1241 -0.024,0.1234 -0.0282,0.1224 -0.0326,0.1214 -0.0367,0.1202 -0.0409,0.1188 -0.045,0.1173 -0.0491,0.1157 -0.0531,0.1138 -0.0571,0.112 -0.0609,0.1099 -0.0647,0.1077 -0.0685,0.1054 -0.072,0.1029 -0.0757,0.1004 -0.079,0.0976 -0.0825,0.0949 -0.0857,0.0919 -0.0888,0.0888 -0.0919,0.0857 -0.0949,0.0825 -0.0976,0.0791 -0.1004,0.0756 -0.1029,0.072 -0.1054,0.0685 -0.1077,0.0647 -0.1099,0.0609 -0.112,0.0571 -0.1139,0.0531 -0.1156,0.0491 -0.1173,0.045 -0.1188,0.0409 -0.1202,0.0368 -0.1214,0.0325 -0.1224,0.0282 -0.1234,0.024 -0.1241,0.0197 -0.1247,0.0153 -0.1252,0.0109 -0.1255,0.0066 L 62,-31.4 Z"
       id="path30141"
       style="fill:none;stroke:#0000ff;stroke-width:0.01;stroke-dasharray:none" />
    <path
       d="m 149.874,-31.4022 -0.125,-0.0066 -0.125,-0.0109 -0.125,-0.0153 -0.124,-0.0197 -0.123,-0.024 -0.123,-0.0282 -0.121,-0.0325 -0.12,-0.0368 -0.119,-0.0409 -0.118,-0.045 -0.115,-0.0491 -0.114,-0.0531 -0.112,-0.0571 -0.11,-0.0609 -0.108,-0.0647 -0.105,-0.0685 -0.103,-0.072 -0.1,-0.0756 -0.098,-0.0791 -0.095,-0.0825 -0.092,-0.0857 -0.089,-0.0888 -0.085,-0.0919 -0.083,-0.0949 -0.079,-0.0976 -0.075,-0.1004 -0.073,-0.1029 -0.068,-0.1054 -0.065,-0.1077 -0.061,-0.1099 -0.057,-0.112 -0.053,-0.1138 -0.049,-0.1157 -0.045,-0.1173 -0.041,-0.1188 -0.037,-0.1202 -0.032,-0.1214 -0.028,-0.1224 -0.024,-0.1234 -0.02,-0.1241 -0.015,-0.1247 -0.011,-0.1252 -0.007,-0.1255 L 146.4,-35 l 0.002,-0.1256 0.007,-0.1255 0.011,-0.1252 0.015,-0.1247 0.02,-0.1241 0.024,-0.1234 0.028,-0.1224 0.032,-0.1214 0.037,-0.1202 0.041,-0.1188 0.045,-0.1173 0.049,-0.1156 0.053,-0.1139 0.057,-0.112 0.061,-0.1099 0.065,-0.1077 0.068,-0.1054 0.073,-0.1029 0.075,-0.1004 0.079,-0.0976 0.083,-0.0949 0.085,-0.0919 0.089,-0.0888 0.092,-0.0857 0.095,-0.0825 0.098,-0.079 0.1,-0.0757 0.103,-0.072 0.105,-0.0685 0.108,-0.0647 0.11,-0.0609 0.112,-0.0571 0.114,-0.0531 0.115,-0.0491 0.118,-0.045 0.119,-0.0409 0.12,-0.0367 0.121,-0.0326 0.123,-0.0282 0.123,-0.024 0.124,-0.0197 0.125,-0.0153 0.125,-0.0109 0.125,-0.0066 0.126,-0.0022 0.126,0.0022 0.125,0.0066 0.125,0.0109 0.125,0.0153 0.124,0.0197 0.123,0.024 0.123,0.0282 0.121,0.0326 0.12,0.0367 0.119,0.0409 0.118,0.045 0.115,0.0491 0.114,0.0531 0.112,0.0571 0.11,0.0609 0.108,0.0647 0.105,0.0685 0.103,0.072 0.1,0.0757 0.098,0.079 0.095,0.0825 0.092,0.0857 0.089,0.0888 0.085,0.0919 0.083,0.0949 0.079,0.0976 0.075,0.1004 0.073,0.1029 0.068,0.1054 0.065,0.1077 0.061,0.1099 0.057,0.112 0.053,0.1139 0.049,0.1156 0.045,0.1173 0.041,0.1188 0.037,0.1202 0.032,0.1214 0.028,0.1224 0.024,0.1234 0.02,0.1241 0.015,0.1247 0.011,0.1252 0.007,0.1255 0.002,0.1256 -0.002,0.1256 -0.007,0.1255 -0.011,0.1252 -0.015,0.1247 -0.02,0.1241 -0.024,0.1234 -0.028,0.1224 -0.032,0.1214 -0.037,0.1202 -0.041,0.1188 -0.045,0.1173 -0.049,0.1157 -0.053,0.1138 -0.057,0.112 -0.061,0.1099 -0.065,0.1077 -0.068,0.1054 -0.073,0.1029 -0.075,0.1004 -0.079,0.0976 -0.083,0.0949 -0.085,0.0919 -0.089,0.0888 -0.092,0.0857 -0.095,0.0825 -0.098,0.0791 -0.1,0.0756 -0.103,0.072 -0.105,0.0685 -0.108,0.0647 -0.11,0.0609 -0.112,0.0571 -0.114,0.0531 -0.115,0.0491 -0.118,0.045 -0.119,0.0409 -0.12,0.0368 -0.121,0.0325 -0.123,0.0282 -0.123,0.024 -0.124,0.0197 -0.125,0.0153 -0.125,0.0109 -0.125,0.0066 L 150,-31.4 Z"
       id="path30139"
       style="fill:none;stroke:#0000ff;stroke-width:0.01;stroke-dasharray:none" />
    <path
       d="m 127.874,-31.4022 -0.125,-0.0066 -0.125,-0.0109 -0.125,-0.0153 -0.124,-0.0197 -0.123,-0.024 -0.123,-0.0282 -0.121,-0.0325 -0.12,-0.0368 -0.119,-0.0409 -0.118,-0.045 -0.115,-0.0491 -0.114,-0.0531 -0.112,-0.0571 -0.11,-0.0609 -0.108,-0.0647 -0.105,-0.0685 -0.103,-0.072 -0.1,-0.0756 -0.098,-0.0791 -0.095,-0.0825 -0.092,-0.0857 -0.089,-0.0888 -0.085,-0.0919 -0.083,-0.0949 -0.079,-0.0976 -0.075,-0.1004 -0.073,-0.1029 -0.068,-0.1054 -0.065,-0.1077 -0.061,-0.1099 -0.057,-0.112 -0.053,-0.1138 -0.049,-0.1157 -0.045,-0.1173 -0.041,-0.1188 -0.037,-0.1202 -0.032,-0.1214 -0.028,-0.1224 -0.024,-0.1234 -0.02,-0.1241 -0.015,-0.1247 -0.011,-0.1252 -0.007,-0.1255 L 124.4,-35 l 0.002,-0.1256 0.007,-0.1255 0.011,-0.1252 0.015,-0.1247 0.02,-0.1241 0.024,-0.1234 0.028,-0.1224 0.032,-0.1214 0.037,-0.1202 0.041,-0.1188 0.045,-0.1173 0.049,-0.1156 0.053,-0.1139 0.057,-0.112 0.061,-0.1099 0.065,-0.1077 0.068,-0.1054 0.073,-0.1029 0.075,-0.1004 0.079,-0.0976 0.083,-0.0949 0.085,-0.0919 0.089,-0.0888 0.092,-0.0857 0.095,-0.0825 0.098,-0.079 0.1,-0.0757 0.103,-0.072 0.105,-0.0685 0.108,-0.0647 0.11,-0.0609 0.112,-0.0571 0.114,-0.0531 0.115,-0.0491 0.118,-0.045 0.119,-0.0409 0.12,-0.0367 0.121,-0.0326 0.123,-0.0282 0.123,-0.024 0.124,-0.0197 0.125,-0.0153 0.125,-0.0109 0.125,-0.0066 0.126,-0.0022 0.126,0.0022 0.125,0.0066 0.125,0.0109 0.125,0.0153 0.124,0.0197 0.123,0.024 0.123,0.0282 0.121,0.0326 0.12,0.0367 0.119,0.0409 0.118,0.045 0.115,0.0491 0.114,0.0531 0.112,0.0571 0.11,0.0609 0.108,0.0647 0.105,0.0685 0.103,0.072 0.1,0.0757 0.098,0.079 0.095,0.0825 0.092,0.0857 0.089,0.0888 0.085,0.0919 0.083,0.0949 0.079,0.0976 0.075,0.1004 0.073,0.1029 0.068,0.1054 0.065,0.1077 0.061,0.1099 0.057,0.112 0.053,0.1139 0.049,0.1156 0.045,0.1173 0.041,0.1188 0.037,0.1202 0.032,0.1214 0.028,0.1224 0.024,0.1234 0.02,0.1241 0.015,0.1247 0.011,0.1252 0.007,0.1255 0.002,0.1256 -0.002,0.1256 -0.007,0.1255 -0.011,0.1252 -0.015,0.1247 -0.02,0.1241 -0.024,0.1234 -0.028,0.1224 -0.032,0.1214 -0.037,0.1202 -0.041,0.1188 -0.045,0.1173 -0.049,0.1157 -0.053,0.1138 -0.057,0.112 -0.061,0.1099 -0.065,0.1077 -0.068,0.1054 -0.073,0.1029 -0.075,0.1004 -0.079,0.0976 -0.083,0.0949 -0.085,0.0919 -0.089,0.0888 -0.092,0.0857 -0.095,0.0825 -0.098,0.0791 -0.1,0.0756 -0.103,0.072 -0.105,0.0685 -0.108,0.0647 -0.11,0.0609 -0.112,0.0571 -0.114,0.0531 -0.115,0.0491 -0.118,0.045 -0.119,0.0409 -0.12,0.0368 -0.121,0.0325 -0.123,0.0282 -0.123,0.024 -0.124,0.0197 -0.125,0.0153 -0.125,0.0109 -0.125,0.0066 L 128,-31.4 Z"
       id="path30137"
       style="fill:none;stroke:#0000ff;stroke-width:0.01;stroke-dasharray:none" />
    <path
       d="m 105.874,-31.4022 -0.125,-0.0066 -0.125,-0.0109 -0.125,-0.0153 -0.124,-0.0197 -0.123,-0.024 -0.123,-0.0282 -0.121,-0.0325 -0.12,-0.0368 -0.119,-0.0409 -0.118,-0.045 -0.115,-0.0491 -0.114,-0.0531 -0.112,-0.0571 -0.11,-0.0609 -0.108,-0.0647 -0.105,-0.0685 -0.103,-0.072 -0.1,-0.0756 -0.098,-0.0791 -0.095,-0.0825 -0.092,-0.0857 -0.089,-0.0888 -0.085,-0.0919 -0.083,-0.0949 -0.079,-0.0976 -0.075,-0.1004 -0.073,-0.1029 -0.068,-0.1054 -0.065,-0.1077 -0.061,-0.1099 -0.057,-0.112 -0.053,-0.1138 -0.049,-0.1157 -0.045,-0.1173 -0.041,-0.1188 -0.037,-0.1202 -0.032,-0.1214 -0.028,-0.1224 -0.024,-0.1234 -0.02,-0.1241 -0.015,-0.1247 -0.011,-0.1252 -0.007,-0.1255 L 102.4,-35 l 0.002,-0.1256 0.007,-0.1255 0.011,-0.1252 0.015,-0.1247 0.02,-0.1241 0.024,-0.1234 0.028,-0.1224 0.032,-0.1214 0.037,-0.1202 0.041,-0.1188 0.045,-0.1173 0.049,-0.1156 0.053,-0.1139 0.057,-0.112 0.061,-0.1099 0.065,-0.1077 0.068,-0.1054 0.073,-0.1029 0.075,-0.1004 0.079,-0.0976 0.083,-0.0949 0.085,-0.0919 0.089,-0.0888 0.092,-0.0857 0.095,-0.0825 0.098,-0.079 0.1,-0.0757 0.103,-0.072 0.105,-0.0685 0.108,-0.0647 0.11,-0.0609 0.112,-0.0571 0.114,-0.0531 0.115,-0.0491 0.118,-0.045 0.119,-0.0409 0.12,-0.0367 0.121,-0.0326 0.123,-0.0282 0.123,-0.024 0.124,-0.0197 0.125,-0.0153 0.125,-0.0109 0.125,-0.0066 0.126,-0.0022 0.126,0.0022 0.125,0.0066 0.125,0.0109 0.125,0.0153 0.124,0.0197 0.123,0.024 0.123,0.0282 0.121,0.0326 0.12,0.0367 0.119,0.0409 0.118,0.045 0.115,0.0491 0.114,0.0531 0.112,0.0571 0.11,0.0609 0.108,0.0647 0.105,0.0685 0.103,0.072 0.1,0.0757 0.098,0.079 0.095,0.0825 0.092,0.0857 0.089,0.0888 0.085,0.0919 0.083,0.0949 0.079,0.0976 0.075,0.1004 0.073,0.1029 0.068,0.1054 0.065,0.1077 0.061,0.1099 0.057,0.112 0.053,0.1139 0.049,0.1156 0.045,0.1173 0.041,0.1188 0.037,0.1202 0.032,0.1214 0.028,0.1224 0.024,0.1234 0.02,0.1241 0.015,0.1247 0.011,0.1252 0.007,0.1255 0.002,0.1256 -0.002,0.1256 -0.007,0.1255 -0.011,0.1252 -0.015,0.1247 -0.02,0.1241 -0.024,0.1234 -0.028,0.1224 -0.032,0.1214 -0.037,0.1202 -0.041,0.1188 -0.045,0.1173 -0.049,0.1157 -0.053,0.1138 -0.057,0.112 -0.061,0.1099 -0.065,0.1077 -0.068,0.1054 -0.073,0.1029 -0.075,0.1004 -0.079,0.0976 -0.083,0.0949 -0.085,0.0919 -0.089,0.0888 -0.092,0.0857 -0.095,0.0825 -0.098,0.0791 -0.1,0.0756 -0.103,0.072 -0.105,0.0685 -0.108,0.0647 -0.11,0.0609 -0.112,0.0571 -0.114,0.0531 -0.115,0.0491 -0.118,0.045 -0.119,0.0409 -0.12,0.0368 -0.121,0.0325 -0.123,0.0282 -0.123,0.024 -0.124,0.0197 -0.125,0.0153 -0.125,0.0109 -0.125,0.0066 L 106,-31.4 Z"
       id="path30135"
       style="fill:none;stroke:#0000ff;stroke-width:0.01;stroke-dasharray:none" />
    <path
       d="m 83.8744,-31.4022 -0.1255,-0.0066 -0.1252,-0.0109 -0.1247,-0.0153 -0.1241,-0.0197 -0.1234,-0.024 -0.1224,-0.0282 -0.1214,-0.0325 -0.1202,-0.0368 -0.1188,-0.0409 -0.1173,-0.045 -0.1157,-0.0491 -0.1138,-0.0531 -0.112,-0.0571 -0.1099,-0.0609 -0.1077,-0.0647 -0.1054,-0.0685 -0.1029,-0.072 -0.1004,-0.0756 -0.0976,-0.0791 -0.0949,-0.0825 -0.0919,-0.0857 -0.0888,-0.0888 -0.0857,-0.0919 -0.0825,-0.0949 -0.0791,-0.0976 -0.0756,-0.1004 -0.072,-0.1029 -0.0685,-0.1054 -0.0647,-0.1077 -0.0609,-0.1099 -0.0571,-0.112 -0.0531,-0.1138 -0.0491,-0.1157 -0.045,-0.1173 -0.0409,-0.1188 -0.0368,-0.1202 -0.0325,-0.1214 -0.0282,-0.1224 -0.024,-0.1234 -0.0197,-0.1241 -0.0153,-0.1247 -0.0109,-0.1252 -0.0066,-0.1255 L 80.4,-35 l 0.0022,-0.1256 0.0066,-0.1255 0.0109,-0.1252 0.0153,-0.1247 0.0197,-0.1241 0.024,-0.1234 0.0282,-0.1224 0.0325,-0.1214 0.0368,-0.1202 0.0409,-0.1188 0.045,-0.1173 0.0491,-0.1156 0.0531,-0.1139 0.0571,-0.112 0.0609,-0.1099 0.0647,-0.1077 0.0685,-0.1054 0.072,-0.1029 0.0756,-0.1004 0.0791,-0.0976 0.0825,-0.0949 0.0857,-0.0919 0.0888,-0.0888 0.0919,-0.0857 0.0949,-0.0825 0.0976,-0.079 0.1004,-0.0757 0.1029,-0.072 0.1054,-0.0685 0.1077,-0.0647 0.1099,-0.0609 0.112,-0.0571 0.1138,-0.0531 0.1157,-0.0491 0.1173,-0.045 0.1188,-0.0409 0.1202,-0.0367 0.1214,-0.0326 0.1224,-0.0282 0.1234,-0.024 0.1241,-0.0197 0.1247,-0.0153 0.1252,-0.0109 0.1255,-0.0066 L 84,-38.6 l 0.1256,0.0022 0.1255,0.0066 0.1252,0.0109 0.1247,0.0153 0.1241,0.0197 0.1234,0.024 0.1224,0.0282 0.1214,0.0326 0.1202,0.0367 0.1188,0.0409 0.1173,0.045 0.1156,0.0491 0.1139,0.0531 0.112,0.0571 0.1099,0.0609 0.1077,0.0647 0.1054,0.0685 0.1029,0.072 0.1004,0.0757 0.0976,0.079 0.0949,0.0825 0.0919,0.0857 0.0888,0.0888 0.0857,0.0919 0.0825,0.0949 0.079,0.0976 0.0757,0.1004 0.072,0.1029 0.0685,0.1054 0.0647,0.1077 0.0609,0.1099 0.0571,0.112 0.0531,0.1139 0.0491,0.1156 0.045,0.1173 0.0409,0.1188 0.0367,0.1202 0.0326,0.1214 0.0282,0.1224 0.024,0.1234 0.0197,0.1241 0.0153,0.1247 0.0109,0.1252 0.0066,0.1255 L 87.6,-35 l -0.0022,0.1256 -0.0066,0.1255 -0.0109,0.1252 -0.0153,0.1247 -0.0197,0.1241 -0.024,0.1234 -0.0282,0.1224 -0.0326,0.1214 -0.0367,0.1202 -0.0409,0.1188 -0.045,0.1173 -0.0491,0.1157 -0.0531,0.1138 -0.0571,0.112 -0.0609,0.1099 -0.0647,0.1077 -0.0685,0.1054 -0.072,0.1029 -0.0757,0.1004 -0.079,0.0976 -0.0825,0.0949 -0.0857,0.0919 -0.0888,0.0888 -0.0919,0.0857 -0.0949,0.0825 -0.0976,0.0791 -0.1004,0.0756 -0.1029,0.072 -0.1054,0.0685 -0.1077,0.0647 -0.1099,0.0609 -0.112,0.0571 -0.1139,0.0531 -0.1156,0.0491 -0.1173,0.045 -0.1188,0.0409 -0.1202,0.0368 -0.1214,0.0325 -0.1224,0.0282 -0.1234,0.024 -0.1241,0.0197 -0.1247,0.0153 -0.1252,0.0109 -0.1255,0.0066 L 84,-31.4 Z"
       id="path30133"
       style="fill:none;stroke:#0000ff;stroke-width:0.01;stroke-dasharray:none" />
    <path
       d="m 149.874,-56.4022 -0.125,-0.0066 -0.125,-0.0109 -0.125,-0.0153 -0.124,-0.0197 -0.123,-0.024 -0.123,-0.0282 -0.121,-0.0325 -0.12,-0.0368 -0.119,-0.0409 -0.118,-0.045 -0.115,-0.0491 -0.114,-0.0531 -0.112,-0.0571 -0.11,-0.0609 -0.108,-0.0647 -0.105,-0.0685 -0.103,-0.072 -0.1,-0.0756 -0.098,-0.0791 -0.095,-0.0825 -0.092,-0.0857 -0.089,-0.0888 -0.085,-0.0919 -0.083,-0.0949 -0.079,-0.0976 -0.075,-0.1004 -0.073,-0.1029 -0.068,-0.1054 -0.065,-0.1077 -0.061,-0.1099 -0.057,-0.112 -0.053,-0.1138 -0.049,-0.1157 -0.045,-0.1173 -0.041,-0.1188 -0.037,-0.1202 -0.032,-0.1214 -0.028,-0.1224 -0.024,-0.1234 -0.02,-0.1241 -0.015,-0.1247 -0.011,-0.1252 -0.007,-0.1255 L 146.4,-60 l 0.002,-0.1256 0.007,-0.1255 0.011,-0.1252 0.015,-0.1247 0.02,-0.1241 0.024,-0.1234 0.028,-0.1224 0.032,-0.1214 0.037,-0.1202 0.041,-0.1188 0.045,-0.1173 0.049,-0.1156 0.053,-0.1139 0.057,-0.112 0.061,-0.1099 0.065,-0.1077 0.068,-0.1054 0.073,-0.1029 0.075,-0.1004 0.079,-0.0976 0.083,-0.0949 0.085,-0.0919 0.089,-0.0888 0.092,-0.0857 0.095,-0.0825 0.098,-0.079 0.1,-0.0757 0.103,-0.072 0.105,-0.0685 0.108,-0.0647 0.11,-0.0609 0.112,-0.0571 0.114,-0.0531 0.115,-0.0491 0.118,-0.045 0.119,-0.0409 0.12,-0.0367 0.121,-0.0326 0.123,-0.0282 0.123,-0.024 0.124,-0.0197 0.125,-0.0153 0.125,-0.0109 0.125,-0.0066 0.126,-0.0022 0.126,0.0022 0.125,0.0066 0.125,0.0109 0.125,0.0153 0.124,0.0197 0.123,0.024 0.123,0.0282 0.121,0.0326 0.12,0.0367 0.119,0.0409 0.118,0.045 0.115,0.0491 0.114,0.0531 0.112,0.0571 0.11,0.0609 0.108,0.0647 0.105,0.0685 0.103,0.072 0.1,0.0757 0.098,0.079 0.095,0.0825 0.092,0.0857 0.089,0.0888 0.085,0.0919 0.083,0.0949 0.079,0.0976 0.075,0.1004 0.073,0.1029 0.068,0.1054 0.065,0.1077 0.061,0.1099 0.057,0.112 0.053,0.1139 0.049,0.1156 0.045,0.1173 0.041,0.1188 0.037,0.1202 0.032,0.1214 0.028,0.1224 0.024,0.1234 0.02,0.1241 0.015,0.1247 0.011,0.1252 0.007,0.1255 0.002,0.1256 -0.002,0.1256 -0.007,0.1255 -0.011,0.1252 -0.015,0.1247 -0.02,0.1241 -0.024,0.1234 -0.028,0.1224 -0.032,0.1214 -0.037,0.1202 -0.041,0.1188 -0.045,0.1173 -0.049,0.1157 -0.053,0.1138 -0.057,0.112 -0.061,0.1099 -0.065,0.1077 -0.068,0.1054 -0.073,0.1029 -0.075,0.1004 -0.079,0.0976 -0.083,0.0949 -0.085,0.0919 -0.089,0.0888 -0.092,0.0857 -0.095,0.0825 -0.098,0.0791 -0.1,0.0756 -0.103,0.072 -0.105,0.0685 -0.108,0.0647 -0.11,0.0609 -0.112,0.0571 -0.114,0.0531 -0.115,0.0491 -0.118,0.045 -0.119,0.0409 -0.12,0.0368 -0.121,0.0325 -0.123,0.0282 -0.123,0.024 -0.124,0.0197 -0.125,0.0153 -0.125,0.0109 -0.125,0.0066 L 150,-56.4 Z"
       id="path30131"
       style="fill:none;stroke:#0000ff;stroke-width:0.01;stroke-dasharray:none" />
    <path
       d="m 127.874,-56.4022 -0.125,-0.0066 -0.125,-0.0109 -0.125,-0.0153 -0.124,-0.0197 -0.123,-0.024 -0.123,-0.0282 -0.121,-0.0325 -0.12,-0.0368 -0.119,-0.0409 -0.118,-0.045 -0.115,-0.0491 -0.114,-0.0531 -0.112,-0.0571 -0.11,-0.0609 -0.108,-0.0647 -0.105,-0.0685 -0.103,-0.072 -0.1,-0.0756 -0.098,-0.0791 -0.095,-0.0825 -0.092,-0.0857 -0.089,-0.0888 -0.085,-0.0919 -0.083,-0.0949 -0.079,-0.0976 -0.075,-0.1004 -0.073,-0.1029 -0.068,-0.1054 -0.065,-0.1077 -0.061,-0.1099 -0.057,-0.112 -0.053,-0.1138 -0.049,-0.1157 -0.045,-0.1173 -0.041,-0.1188 -0.037,-0.1202 -0.032,-0.1214 -0.028,-0.1224 -0.024,-0.1234 -0.02,-0.1241 -0.015,-0.1247 -0.011,-0.1252 -0.007,-0.1255 L 124.4,-60 l 0.002,-0.1256 0.007,-0.1255 0.011,-0.1252 0.015,-0.1247 0.02,-0.1241 0.024,-0.1234 0.028,-0.1224 0.032,-0.1214 0.037,-0.1202 0.041,-0.1188 0.045,-0.1173 0.049,-0.1156 0.053,-0.1139 0.057,-0.112 0.061,-0.1099 0.065,-0.1077 0.068,-0.1054 0.073,-0.1029 0.075,-0.1004 0.079,-0.0976 0.083,-0.0949 0.085,-0.0919 0.089,-0.0888 0.092,-0.0857 0.095,-0.0825 0.098,-0.079 0.1,-0.0757 0.103,-0.072 0.105,-0.0685 0.108,-0.0647 0.11,-0.0609 0.112,-0.0571 0.114,-0.0531 0.115,-0.0491 0.118,-0.045 0.119,-0.0409 0.12,-0.0367 0.121,-0.0326 0.123,-0.0282 0.123,-0.024 0.124,-0.0197 0.125,-0.0153 0.125,-0.0109 0.125,-0.0066 0.126,-0.0022 0.126,0.0022 0.125,0.0066 0.125,0.0109 0.125,0.0153 0.124,0.0197 0.123,0.024 0.123,0.0282 0.121,0.0326 0.12,0.0367 0.119,0.0409 0.118,0.045 0.115,0.0491 0.114,0.0531 0.112,0.0571 0.11,0.0609 0.108,0.0647 0.105,0.0685 0.103,0.072 0.1,0.0757 0.098,0.079 0.095,0.0825 0.092,0.0857 0.089,0.0888 0.085,0.0919 0.083,0.0949 0.079,0.0976 0.075,0.1004 0.073,0.1029 0.068,0.1054 0.065,0.1077 0.061,0.1099 0.057,0.112 0.053,0.1139 0.049,0.1156 0.045,0.1173 0.041,0.1188 0.037,0.1202 0.032,0.1214 0.028,0.1224 0.024,0.1234 0.02,0.1241 0.015,0.1247 0.011,0.1252 0.007,0.1255 0.002,0.1256 -0.002,0.1256 -0.007,0.1255 -0.011,0.1252 -0.015,0.1247 -0.02,0.1241 -0.024,0.1234 -0.028,0.1224 -0.032,0.1214 -0.037,0.1202 -0.041,0.1188 -0.045,0.1173 -0.049,0.1157 -0.053,0.1138 -0.057,0.112 -0.061,0.1099 -0.065,0.1077 -0.068,0.1054 -0.073,0.1029 -0.075,0.1004 -0.079,0.0976 -0.083,0.0949 -0.085,0.0919 -0.089,0.0888 -0.092,0.0857 -0.095,0.0825 -0.098,0.0791 -0.1,0.0756 -0.103,0.072 -0.105,0.0685 -0.108,0.0647 -0.11,0.0609 -0.112,0.0571 -0.114,0.0531 -0.115,0.0491 -0.118,0.045 -0.119,0.0409 -0.12,0.0368 -0.121,0.0325 -0.123,0.0282 -0.123,0.024 -0.124,0.0197 -0.125,0.0153 -0.125,0.0109 -0.125,0.0066 L 128,-56.4 Z"
       id="path30129"
       style="fill:none;stroke:#0000ff;stroke-width:0.01;stroke-dasharray:none" />
    <path
       d="m 105.874,-56.4022 -0.125,-0.0066 -0.125,-0.0109 -0.125,-0.0153 -0.124,-0.0197 -0.123,-0.024 -0.123,-0.0282 -0.121,-0.0325 -0.12,-0.0368 -0.119,-0.0409 -0.118,-0.045 -0.115,-0.0491 -0.114,-0.0531 -0.112,-0.0571 -0.11,-0.0609 -0.108,-0.0647 -0.105,-0.0685 -0.103,-0.072 -0.1,-0.0756 -0.098,-0.0791 -0.095,-0.0825 -0.092,-0.0857 -0.089,-0.0888 -0.085,-0.0919 -0.083,-0.0949 -0.079,-0.0976 -0.075,-0.1004 -0.073,-0.1029 -0.068,-0.1054 -0.065,-0.1077 -0.061,-0.1099 -0.057,-0.112 -0.053,-0.1138 -0.049,-0.1157 -0.045,-0.1173 -0.041,-0.1188 -0.037,-0.1202 -0.032,-0.1214 -0.028,-0.1224 -0.024,-0.1234 -0.02,-0.1241 -0.015,-0.1247 -0.011,-0.1252 -0.007,-0.1255 L 102.4,-60 l 0.002,-0.1256 0.007,-0.1255 0.011,-0.1252 0.015,-0.1247 0.02,-0.1241 0.024,-0.1234 0.028,-0.1224 0.032,-0.1214 0.037,-0.1202 0.041,-0.1188 0.045,-0.1173 0.049,-0.1156 0.053,-0.1139 0.057,-0.112 0.061,-0.1099 0.065,-0.1077 0.068,-0.1054 0.073,-0.1029 0.075,-0.1004 0.079,-0.0976 0.083,-0.0949 0.085,-0.0919 0.089,-0.0888 0.092,-0.0857 0.095,-0.0825 0.098,-0.079 0.1,-0.0757 0.103,-0.072 0.105,-0.0685 0.108,-0.0647 0.11,-0.0609 0.112,-0.0571 0.114,-0.0531 0.115,-0.0491 0.118,-0.045 0.119,-0.0409 0.12,-0.0367 0.121,-0.0326 0.123,-0.0282 0.123,-0.024 0.124,-0.0197 0.125,-0.0153 0.125,-0.0109 0.125,-0.0066 0.126,-0.0022 0.126,0.0022 0.125,0.0066 0.125,0.0109 0.125,0.0153 0.124,0.0197 0.123,0.024 0.123,0.0282 0.121,0.0326 0.12,0.0367 0.119,0.0409 0.118,0.045 0.115,0.0491 0.114,0.0531 0.112,0.0571 0.11,0.0609 0.108,0.0647 0.105,0.0685 0.103,0.072 0.1,0.0757 0.098,0.079 0.095,0.0825 0.092,0.0857 0.089,0.0888 0.085,0.0919 0.083,0.0949 0.079,0.0976 0.075,0.1004 0.073,0.1029 0.068,0.1054 0.065,0.1077 0.061,0.1099 0.057,0.112 0.053,0.1139 0.049,0.1156 0.045,0.1173 0.041,0.1188 0.037,0.1202 0.032,0.1214 0.028,0.1224 0.024,0.1234 0.02,0.1241 0.015,0.1247 0.011,0.1252 0.007,0.1255 0.002,0.1256 -0.002,0.1256 -0.007,0.1255 -0.011,0.1252 -0.015,0.1247 -0.02,0.1241 -0.024,0.1234 -0.028,0.1224 -0.032,0.1214 -0.037,0.1202 -0.041,0.1188 -0.045,0.1173 -0.049,0.1157 -0.053,0.1138 -0.057,0.112 -0.061,0.1099 -0.065,0.1077 -0.068,0.1054 -0.073,0.1029 -0.075,0.1004 -0.079,0.0976 -0.083,0.0949 -0.085,0.0919 -0.089,0.0888 -0.092,0.0857 -0.095,0.0825 -0.098,0.0791 -0.1,0.0756 -0.103,0.072 -0.105,0.0685 -0.108,0.0647 -0.11,0.0609 -0.112,0.0571 -0.114,0.0531 -0.115,0.0491 -0.118,0.045 -0.119,0.0409 -0.12,0.0368 -0.121,0.0325 -0.123,0.0282 -0.123,0.024 -0.124,0.0197 -0.125,0.0153 -0.125,0.0109 -0.125,0.0066 L 106,-56.4 Z"
       id="path30127"
       style="fill:none;stroke:#0000ff;stroke-width:0.01;stroke-dasharray:none" />
    <path
       d="m 83.8744,-56.4022 -0.1255,-0.0066 -0.1252,-0.0109 -0.1247,-0.0153 -0.1241,-0.0197 -0.1234,-0.024 -0.1224,-0.0282 -0.1214,-0.0325 -0.1202,-0.0368 -0.1188,-0.0409 -0.1173,-0.045 -0.1157,-0.0491 -0.1138,-0.0531 -0.112,-0.0571 -0.1099,-0.0609 -0.1077,-0.0647 -0.1054,-0.0685 -0.1029,-0.072 -0.1004,-0.0756 -0.0976,-0.0791 -0.0949,-0.0825 -0.0919,-0.0857 -0.0888,-0.0888 -0.0857,-0.0919 -0.0825,-0.0949 -0.0791,-0.0976 -0.0756,-0.1004 -0.072,-0.1029 -0.0685,-0.1054 -0.0647,-0.1077 -0.0609,-0.1099 -0.0571,-0.112 -0.0531,-0.1138 -0.0491,-0.1157 -0.045,-0.1173 -0.0409,-0.1188 -0.0368,-0.1202 -0.0325,-0.1214 -0.0282,-0.1224 -0.024,-0.1234 -0.0197,-0.1241 -0.0153,-0.1247 -0.0109,-0.1252 -0.0066,-0.1255 L 80.4,-60 l 0.0022,-0.1256 0.0066,-0.1255 0.0109,-0.1252 0.0153,-0.1247 0.0197,-0.1241 0.024,-0.1234 0.0282,-0.1224 0.0325,-0.1214 0.0368,-0.1202 0.0409,-0.1188 0.045,-0.1173 0.0491,-0.1156 0.0531,-0.1139 0.0571,-0.112 0.0609,-0.1099 0.0647,-0.1077 0.0685,-0.1054 0.072,-0.1029 0.0756,-0.1004 0.0791,-0.0976 0.0825,-0.0949 0.0857,-0.0919 0.0888,-0.0888 0.0919,-0.0857 0.0949,-0.0825 0.0976,-0.079 0.1004,-0.0757 0.1029,-0.072 0.1054,-0.0685 0.1077,-0.0647 0.1099,-0.0609 0.112,-0.0571 0.1138,-0.0531 0.1157,-0.0491 0.1173,-0.045 0.1188,-0.0409 0.1202,-0.0367 0.1214,-0.0326 0.1224,-0.0282 0.1234,-0.024 0.1241,-0.0197 0.1247,-0.0153 0.1252,-0.0109 0.1255,-0.0066 L 84,-63.6 l 0.1256,0.0022 0.1255,0.0066 0.1252,0.0109 0.1247,0.0153 0.1241,0.0197 0.1234,0.024 0.1224,0.0282 0.1214,0.0326 0.1202,0.0367 0.1188,0.0409 0.1173,0.045 0.1156,0.0491 0.1139,0.0531 0.112,0.0571 0.1099,0.0609 0.1077,0.0647 0.1054,0.0685 0.1029,0.072 0.1004,0.0757 0.0976,0.079 0.0949,0.0825 0.0919,0.0857 0.0888,0.0888 0.0857,0.0919 0.0825,0.0949 0.079,0.0976 0.0757,0.1004 0.072,0.1029 0.0685,0.1054 0.0647,0.1077 0.0609,0.1099 0.0571,0.112 0.0531,0.1139 0.0491,0.1156 0.045,0.1173 0.0409,0.1188 0.0367,0.1202 0.0326,0.1214 0.0282,0.1224 0.024,0.1234 0.0197,0.1241 0.0153,0.1247 0.0109,0.1252 0.0066,0.1255 L 87.6,-60 l -0.0022,0.1256 -0.0066,0.1255 -0.0109,0.1252 -0.0153,0.1247 -0.0197,0.1241 -0.024,0.1234 -0.0282,0.1224 -0.0326,0.1214 -0.0367,0.1202 -0.0409,0.1188 -0.045,0.1173 -0.0491,0.1157 -0.0531,0.1138 -0.0571,0.112 -0.0609,0.1099 -0.0647,0.1077 -0.0685,0.1054 -0.072,0.1029 -0.0757,0.1004 -0.079,0.0976 -0.0825,0.0949 -0.0857,0.0919 -0.0888,0.0888 -0.0919,0.0857 -0.0949,0.0825 -0.0976,0.0791 -0.1004,0.0756 -0.1029,0.072 -0.1054,0.0685 -0.1077,0.0647 -0.1099,0.0609 -0.112,0.0571 -0.1139,0.0531 -0.1156,0.0491 -0.1173,0.045 -0.1188,0.0409 -0.1202,0.0368 -0.1214,0.0325 -0.1224,0.0282 -0.1234,0.024 -0.1241,0.0197 -0.1247,0.0153 -0.1252,0.0109 -0.1255,0.0066 L 84,-56.4 Z"
       id="path30125"
       style="fill:none;stroke:#0000ff;stroke-width:0.01;stroke-dasharray:none" />
    <path
       d="m 61.8342,-55.2529 -0.1655,-0.0087 -0.1652,-0.0144 -0.1646,-0.0202 -0.1637,-0.026 -0.1628,-0.0316 -0.1615,-0.0373 -0.1602,-0.0429 -0.1585,-0.0485 -0.1568,-0.054 -0.1548,-0.0594 -0.1526,-0.0647 -0.1503,-0.0701 -0.1477,-0.0753 -0.145,-0.0804 -0.1421,-0.0854 -0.1391,-0.0903 -0.1358,-0.0951 -0.1324,-0.0997 -0.1289,-0.1044 -0.1251,-0.1087 -0.1212,-0.1131 -0.1173,-0.1173 -0.1131,-0.1212 -0.1087,-0.1251 -0.1044,-0.1289 -0.0997,-0.1324 -0.0951,-0.1358 -0.0903,-0.1391 -0.0854,-0.1421 -0.0804,-0.145 -0.0753,-0.1477 -0.0701,-0.1503 -0.0647,-0.1526 -0.0594,-0.1548 -0.054,-0.1568 -0.0485,-0.1585 -0.0429,-0.1602 -0.0373,-0.1615 -0.0316,-0.1628 -0.026,-0.1637 -0.0202,-0.1646 -0.0144,-0.1652 -0.0087,-0.1655 L 57.25,-60 l 0.0029,-0.1658 0.0087,-0.1655 0.0144,-0.1652 0.0202,-0.1646 0.026,-0.1637 0.0316,-0.1628 0.0373,-0.1615 0.0429,-0.1602 0.0485,-0.1585 0.054,-0.1568 0.0594,-0.1548 0.0647,-0.1526 0.0701,-0.1503 0.0753,-0.1477 0.0804,-0.145 0.0854,-0.1421 0.0903,-0.1391 0.0951,-0.1358 0.0997,-0.1324 0.1044,-0.1288 0.1087,-0.1252 0.1131,-0.1212 0.1173,-0.1173 0.1212,-0.113 0.1251,-0.1088 0.1289,-0.1043 0.1324,-0.0998 0.1358,-0.0951 0.1391,-0.0903 0.1421,-0.0854 0.145,-0.0804 0.1477,-0.0753 0.1503,-0.07 0.1526,-0.0648 0.1548,-0.0594 0.1568,-0.054 0.1585,-0.0485 0.1602,-0.0429 0.1615,-0.0373 0.1628,-0.0316 0.1637,-0.026 0.1646,-0.0202 0.1652,-0.0144 0.1655,-0.0087 L 62,-64.75 l 0.1658,0.0029 0.1655,0.0087 0.1652,0.0144 0.1646,0.0202 0.1637,0.026 0.1628,0.0316 0.1615,0.0373 0.1602,0.0429 0.1585,0.0485 0.1568,0.054 0.1548,0.0594 0.1526,0.0648 0.1503,0.07 0.1477,0.0753 0.145,0.0804 0.1421,0.0854 0.1391,0.0903 0.1358,0.0951 0.1324,0.0998 0.1288,0.1043 0.1252,0.1088 0.1212,0.113 0.1173,0.1173 0.113,0.1212 0.1088,0.1252 0.1043,0.1288 0.0998,0.1324 0.0951,0.1358 0.0903,0.1391 0.0854,0.1421 0.0804,0.145 0.0753,0.1477 0.07,0.1503 0.0648,0.1526 0.0594,0.1548 0.054,0.1568 0.0485,0.1585 0.0429,0.1602 0.0373,0.1615 0.0316,0.1628 0.026,0.1637 0.0202,0.1646 0.0144,0.1652 0.0087,0.1655 0.0029,0.1658 -0.0029,0.1658 -0.0087,0.1655 -0.0144,0.1652 -0.0202,0.1646 -0.026,0.1637 -0.0316,0.1628 -0.0373,0.1615 -0.0429,0.1602 -0.0485,0.1585 -0.054,0.1568 -0.0594,0.1548 -0.0648,0.1526 -0.07,0.1503 -0.0753,0.1477 -0.0804,0.145 -0.0854,0.1421 -0.0903,0.1391 -0.0951,0.1358 -0.0998,0.1324 -0.1043,0.1289 -0.1088,0.1251 -0.113,0.1212 -0.1173,0.1173 -0.1212,0.1131 -0.1252,0.1087 -0.1288,0.1044 -0.1324,0.0997 -0.1358,0.0951 -0.1391,0.0903 -0.1421,0.0854 -0.145,0.0804 -0.1477,0.0753 -0.1503,0.0701 -0.1526,0.0647 -0.1548,0.0594 -0.1568,0.054 -0.1585,0.0485 -0.1602,0.0429 -0.1615,0.0373 -0.1628,0.0316 -0.1637,0.026 -0.1646,0.0202 -0.1652,0.0144 -0.1655,0.0087 L 62,-55.25 Z"
       id="path30123"
       style="fill:none;stroke:#0000ff;stroke-width:0.01;stroke-dasharray:none" />
    <path
       d="m 39.8342,-55.2529 -0.1655,-0.0087 -0.1652,-0.0144 -0.1646,-0.0202 -0.1637,-0.026 -0.1628,-0.0316 -0.1615,-0.0373 -0.1602,-0.0429 -0.1585,-0.0485 -0.1568,-0.054 -0.1548,-0.0594 -0.1526,-0.0647 -0.1503,-0.0701 -0.1477,-0.0753 -0.145,-0.0804 -0.1421,-0.0854 -0.1391,-0.0903 -0.1358,-0.0951 -0.1324,-0.0997 -0.1289,-0.1044 -0.1251,-0.1087 -0.1212,-0.1131 -0.1173,-0.1173 -0.1131,-0.1212 -0.1087,-0.1251 -0.1044,-0.1289 -0.0997,-0.1324 -0.0951,-0.1358 -0.0903,-0.1391 -0.0854,-0.1421 -0.0804,-0.145 -0.0753,-0.1477 -0.0701,-0.1503 -0.0647,-0.1526 -0.0594,-0.1548 -0.054,-0.1568 -0.0485,-0.1585 -0.0429,-0.1602 -0.0373,-0.1615 -0.0316,-0.1628 -0.026,-0.1637 -0.0202,-0.1646 -0.0144,-0.1652 -0.0087,-0.1655 L 35.25,-60 l 0.0029,-0.1658 0.0087,-0.1655 0.0144,-0.1652 0.0202,-0.1646 0.026,-0.1637 0.0316,-0.1628 0.0373,-0.1615 0.0429,-0.1602 0.0485,-0.1585 0.054,-0.1568 0.0594,-0.1548 0.0647,-0.1526 0.0701,-0.1503 0.0753,-0.1477 0.0804,-0.145 0.0854,-0.1421 0.0903,-0.1391 0.0951,-0.1358 0.0997,-0.1324 0.1044,-0.1288 0.1087,-0.1252 0.1131,-0.1212 0.1173,-0.1173 0.1212,-0.113 0.1251,-0.1088 0.1289,-0.1043 0.1324,-0.0998 0.1358,-0.0951 0.1391,-0.0903 0.1421,-0.0854 0.145,-0.0804 0.1477,-0.0753 0.1503,-0.07 0.1526,-0.0648 0.1548,-0.0594 0.1568,-0.054 0.1585,-0.0485 0.1602,-0.0429 0.1615,-0.0373 0.1628,-0.0316 0.1637,-0.026 0.1646,-0.0202 0.1652,-0.0144 0.1655,-0.0087 L 40,-64.75 l 0.1658,0.0029 0.1655,0.0087 0.1652,0.0144 0.1646,0.0202 0.1637,0.026 0.1628,0.0316 0.1615,0.0373 0.1602,0.0429 0.1585,0.0485 0.1568,0.054 0.1548,0.0594 0.1526,0.0648 0.1503,0.07 0.1477,0.0753 0.145,0.0804 0.1421,0.0854 0.1391,0.0903 0.1358,0.0951 0.1324,0.0998 0.1288,0.1043 0.1252,0.1088 0.1212,0.113 0.1173,0.1173 0.113,0.1212 0.1088,0.1252 0.1043,0.1288 0.0998,0.1324 0.0951,0.1358 0.0903,0.1391 0.0854,0.1421 0.0804,0.145 0.0753,0.1477 0.07,0.1503 0.0648,0.1526 0.0594,0.1548 0.054,0.1568 0.0485,0.1585 0.0429,0.1602 0.0373,0.1615 0.0316,0.1628 0.026,0.1637 0.0202,0.1646 0.0144,0.1652 0.0087,0.1655 0.0029,0.1658 -0.0029,0.1658 -0.0087,0.1655 -0.0144,0.1652 -0.0202,0.1646 -0.026,0.1637 -0.0316,0.1628 -0.0373,0.1615 -0.0429,0.1602 -0.0485,0.1585 -0.054,0.1568 -0.0594,0.1548 -0.0648,0.1526 -0.07,0.1503 -0.0753,0.1477 -0.0804,0.145 -0.0854,0.1421 -0.0903,0.1391 -0.0951,0.1358 -0.0998,0.1324 -0.1043,0.1289 -0.1088,0.1251 -0.113,0.1212 -0.1173,0.1173 -0.1212,0.1131 -0.1252,0.1087 -0.1288,0.1044 -0.1324,0.0997 -0.1358,0.0951 -0.1391,0.0903 -0.1421,0.0854 -0.145,0.0804 -0.1477,0.0753 -0.1503,0.0701 -0.1526,0.0647 -0.1548,0.0594 -0.1568,0.054 -0.1585,0.0485 -0.1602,0.0429 -0.1615,0.0373 -0.1628,0.0316 -0.1637,0.026 -0.1646,0.0202 -0.1652,0.0144 -0.1655,0.0087 L 40,-55.25 Z"
       id="path30121"
       style="fill:none;stroke:#0000ff;stroke-width:0.01;stroke-dasharray:none" />
    <path
       d="m 17.8342,-55.2529 -0.1655,-0.0087 -0.1652,-0.0144 -0.1646,-0.0202 -0.1637,-0.026 -0.1628,-0.0316 -0.1615,-0.0373 -0.1602,-0.0429 -0.1585,-0.0485 -0.1568,-0.054 -0.1548,-0.0594 -0.1526,-0.0647 -0.1503,-0.0701 -0.1477,-0.0753 -0.145,-0.0804 -0.1421,-0.0854 -0.1391,-0.0903 -0.1358,-0.0951 -0.1324,-0.0997 -0.1289,-0.1044 -0.1251,-0.1087 -0.1212,-0.1131 -0.1173,-0.1173 -0.1131,-0.1212 -0.1087,-0.1251 -0.1044,-0.1289 -0.0997,-0.1324 -0.0951,-0.1358 -0.0903,-0.1391 -0.0854,-0.1421 -0.0804,-0.145 -0.0753,-0.1477 -0.0701,-0.1503 -0.0647,-0.1526 -0.0594,-0.1548 -0.054,-0.1568 -0.0485,-0.1585 -0.0429,-0.1602 -0.0373,-0.1615 -0.0316,-0.1628 -0.026,-0.1637 -0.0202,-0.1646 -0.0144,-0.1652 -0.0087,-0.1655 L 13.25,-60 l 0.0029,-0.1658 0.0087,-0.1655 0.0144,-0.1652 0.0202,-0.1646 0.026,-0.1637 0.0316,-0.1628 0.0373,-0.1615 0.0429,-0.1602 0.0485,-0.1585 0.054,-0.1568 0.0594,-0.1548 0.0647,-0.1526 0.0701,-0.1503 0.0753,-0.1477 0.0804,-0.145 0.0854,-0.1421 0.0903,-0.1391 0.0951,-0.1358 0.0997,-0.1324 0.1044,-0.1288 0.1087,-0.1252 0.1131,-0.1212 0.1173,-0.1173 0.1212,-0.113 0.1251,-0.1088 0.1289,-0.1043 0.1324,-0.0998 0.1358,-0.0951 0.1391,-0.0903 0.1421,-0.0854 0.145,-0.0804 0.1477,-0.0753 0.1503,-0.07 0.1526,-0.0648 0.1548,-0.0594 0.1568,-0.054 0.1585,-0.0485 0.1602,-0.0429 0.1615,-0.0373 0.1628,-0.0316 0.1637,-0.026 0.1646,-0.0202 0.1652,-0.0144 0.1655,-0.0087 L 18,-64.75 l 0.1658,0.0029 0.1655,0.0087 0.1652,0.0144 0.1646,0.0202 0.1637,0.026 0.1628,0.0316 0.1615,0.0373 0.1602,0.0429 0.1585,0.0485 0.1568,0.054 0.1548,0.0594 0.1526,0.0648 0.1503,0.07 0.1477,0.0753 0.145,0.0804 0.1421,0.0854 0.1391,0.0903 0.1358,0.0951 0.1324,0.0998 0.1288,0.1043 0.1252,0.1088 0.1212,0.113 0.1173,0.1173 0.113,0.1212 0.1088,0.1252 0.1043,0.1288 0.0998,0.1324 0.0951,0.1358 0.0903,0.1391 0.0854,0.1421 0.0804,0.145 0.0753,0.1477 0.07,0.1503 0.0648,0.1526 0.0594,0.1548 0.054,0.1568 0.0485,0.1585 0.0429,0.1602 0.0373,0.1615 0.0316,0.1628 0.026,0.1637 0.0202,0.1646 0.0144,0.1652 0.0087,0.1655 0.0029,0.1658 -0.0029,0.1658 -0.0087,0.1655 -0.0144,0.1652 -0.0202,0.1646 -0.026,0.1637 -0.0316,0.1628 -0.0373,0.1615 -0.0429,0.1602 -0.0485,0.1585 -0.054,0.1568 -0.0594,0.1548 -0.0648,0.1526 -0.07,0.1503 -0.0753,0.1477 -0.0804,0.145 -0.0854,0.1421 -0.0903,0.1391 -0.0951,0.1358 -0.0998,0.1324 -0.1043,0.1289 -0.1088,0.1251 -0.113,0.1212 -0.1173,0.1173 -0.1212,0.1131 -0.1252,0.1087 -0.1288,0.1044 -0.1324,0.0997 -0.1358,0.0951 -0.1391,0.0903 -0.1421,0.0854 -0.145,0.0804 -0.1477,0.0753 -0.1503,0.0701 -0.1526,0.0647 -0.1548,0.0594 -0.1568,0.054 -0.1585,0.0485 -0.1602,0.0429 -0.1615,0.0373 -0.1628,0.0316 -0.1637,0.026 -0.1646,0.0202 -0.1652,0.0144 -0.1655,0.0087 L 18,-55.25 Z"
       id="path30119"
       style="fill:none;stroke:#0000ff;stroke-width:0.01;stroke-dasharray:none" />
    <path
       d="m 160.45,-71.2507 -0.1,-0.0057 -0.099,-0.0114 -0.099,-0.0171 -0.097,-0.0226 -0.096,-0.0281 -0.094,-0.0336 -0.092,-0.0389 -0.09,-0.0441 -0.087,-0.0492 -0.084,-0.054 -0.081,-0.0588 -0.077,-0.0632 -0.074,-0.0676 -0.069,-0.0717 -0.066,-0.0755 -0.061,-0.0792 -0.056,-0.0825 -0.052,-0.0856 -0.046,-0.0884 -0.042,-0.0909 -0.036,-0.0931 -0.031,-0.0951 -0.026,-0.0966 -0.019,-0.098 -0.015,-0.0989 -0.008,-0.0996 -0.003,-0.0999 0.003,-0.0999 0.008,-0.0996 0.015,-0.0989 0.019,-0.098 0.026,-0.0966 0.031,-0.0951 0.036,-0.0931 0.042,-0.0909 0.046,-0.0884 0.052,-0.0856 0.056,-0.0825 0.061,-0.0792 0.066,-0.0755 0.069,-0.0717 0.074,-0.0676 0.077,-0.0632 0.081,-0.0588 0.084,-0.054 0.087,-0.0491 0.09,-0.0441 0.092,-0.039 0.094,-0.0335 0.096,-0.0282 0.097,-0.0226 0.099,-0.0171 0.099,-0.0114 0.1,-0.0057 h 0.1 l 0.1,0.0057 0.099,0.0114 0.099,0.0171 0.097,0.0226 0.096,0.0282 0.094,0.0335 0.092,0.039 0.09,0.0441 0.087,0.0491 0.084,0.054 0.081,0.0588 0.077,0.0632 0.074,0.0676 0.069,0.0717 0.066,0.0755 0.061,0.0792 0.056,0.0825 0.052,0.0856 0.046,0.0884 0.042,0.0909 0.036,0.0931 0.031,0.0951 0.026,0.0966 0.019,0.098 0.015,0.0989 0.008,0.0996 0.003,0.0999 -0.003,0.0999 -0.008,0.0996 -0.015,0.0989 -0.019,0.098 -0.026,0.0966 -0.031,0.0951 -0.036,0.0931 -0.042,0.0909 -0.046,0.0884 -0.052,0.0856 -0.056,0.0825 -0.061,0.0792 -0.066,0.0755 -0.069,0.0717 -0.074,0.0676 -0.077,0.0632 -0.081,0.0588 -0.084,0.054 -0.087,0.0492 -0.09,0.0441 -0.092,0.0389 -0.094,0.0336 -0.096,0.0281 -0.097,0.0226 -0.099,0.0171 -0.099,0.0114 -0.1,0.0057 z"
       id="path30111"
       style="fill:none;stroke:#0000ff;stroke-width:0.01;stroke-dasharray:none" />
    <path
       d="M 7.45001,-71.2507 7.35023,-71.2564 7.25095,-71.2678 7.15247,-71.2849 7.05511,-71.3075 6.95921,-71.3356 6.86508,-71.3692 6.77301,-71.4081 6.68332,-71.4522 6.5963,-71.5014 6.51222,-71.5554 6.43137,-71.6142 6.35399,-71.6774 6.28035,-71.745 6.21069,-71.8167 6.14525,-71.8922 6.08421,-71.9714 6.0278,-72.0539 5.97618,-72.1395 5.92955,-72.2279 5.88803,-72.3188 5.85176,-72.4119 5.82088,-72.507 5.79547,-72.6036 5.77562,-72.7016 5.7614,-72.8005 5.75285,-72.9001 5.75,-73 l 0.00285,-0.0999 0.00855,-0.0996 0.01422,-0.0989 0.01985,-0.098 0.02541,-0.0966 0.03088,-0.0951 0.03627,-0.0931 0.04152,-0.0909 0.04663,-0.0884 0.05162,-0.0856 0.05641,-0.0825 0.06104,-0.0792 0.06544,-0.0755 0.06966,-0.0717 0.07364,-0.0676 0.07738,-0.0632 0.08085,-0.0588 0.08408,-0.054 0.08702,-0.0491 0.08969,-0.0441 0.09207,-0.039 0.09413,-0.0335 0.0959,-0.0282 0.09736,-0.0226 0.09848,-0.0171 0.09928,-0.0114 0.09978,-0.0057 h 0.09996 l 0.09978,0.0057 0.09929,0.0114 0.09848,0.0171 0.09735,0.0226 0.0959,0.0282 0.09413,0.0335 0.09207,0.039 0.0897,0.0441 0.08702,0.0491 0.08407,0.054 0.08086,0.0588 0.07738,0.0632 0.07364,0.0676 0.06965,0.0717 0.06545,0.0755 0.06103,0.0792 0.05641,0.0825 0.05162,0.0856 0.04663,0.0884 0.04152,0.0909 0.03627,0.0931 0.03089,0.0951 0.0254,0.0966 0.01986,0.098 0.01422,0.0989 0.00854,0.0996 L 9.25,-73 l -0.00287,0.0999 -0.00854,0.0996 -0.01422,0.0989 -0.01986,0.098 -0.0254,0.0966 -0.03089,0.0951 -0.03627,0.0931 -0.04152,0.0909 -0.04663,0.0884 -0.05162,0.0856 -0.05641,0.0825 -0.06103,0.0792 -0.06545,0.0755 -0.06965,0.0717 -0.07364,0.0676 -0.07738,0.0632 -0.08086,0.0588 -0.08407,0.054 -0.08702,0.0492 -0.0897,0.0441 -0.09207,0.0389 -0.09413,0.0336 -0.0959,0.0281 -0.09735,0.0226 -0.09848,0.0171 -0.09929,0.0114 -0.09978,0.0057 z"
       id="path30109"
       style="fill:none;stroke:#0000ff;stroke-width:0.01;stroke-dasharray:none" />
    <path
       d="m 162.209,-0.00366211 0.21,-0.01095579 0.208,-0.0182648 0.208,-0.0255127 0.207,-0.0327606 0.205,-0.039963 0.205,-0.047119 0.202,-0.054199 0.2,-0.061234 0.198,-0.068176 0.196,-0.075058 0.192,-0.081833 0.19,-0.088501 0.187,-0.095077 0.183,-0.101532 0.18,-0.107865 0.175,-0.114077 0.172,-0.12011 0.167,-0.12604 0.163,-0.13181 0.158,-0.13739 0.153,-0.14284 0.148,-0.14808 0.143,-0.15317 0.137,-0.15805 0.132,-0.16277 0.126,-0.16725 0.12,-0.17155 0.114,-0.17565 0.108,-0.1795 0.102,-0.18318 0.095,-0.1866 0.088,-0.18981 0.082,-0.19278 0.075,-0.19552 0.068,-0.19801 0.062,-0.20028 0.054,-0.2023 0.047,-0.20405 0.04,-0.20558 0.033,-0.20685 0.025,-0.20787 0.018,-0.20864 0.011,-0.20913 L 168,-6 v -74 l -0.004,-0.2094 -0.011,-0.2091 -0.018,-0.2087 -0.025,-0.2078 -0.033,-0.2069 -0.04,-0.2056 -0.047,-0.204 -0.054,-0.2023 -0.062,-0.2003 -0.068,-0.198 -0.075,-0.1955 -0.082,-0.1928 -0.088,-0.1898 -0.095,-0.1866 -0.102,-0.1832 -0.108,-0.1795 -0.114,-0.1756 -0.12,-0.1716 -0.126,-0.1673 -0.132,-0.1627 -0.137,-0.1581 -0.143,-0.1531 -0.148,-0.1481 -0.153,-0.1429 -0.158,-0.1374 -0.163,-0.1318 -0.167,-0.126 -0.172,-0.1201 -0.175,-0.1141 -0.18,-0.1079 -0.183,-0.1015 -0.187,-0.0951 -0.19,-0.0885 -0.192,-0.0818 -0.196,-0.0751 -0.198,-0.0681 -0.2,-0.0613 -0.202,-0.0542 -0.205,-0.0471 -0.205,-0.0399 -0.207,-0.0328 -0.208,-0.0255 -0.208,-0.0183 -0.21,-0.0109 L 162,-86 H 6 l -0.2094,0.0037 -0.20913,0.0109 -0.20864,0.0183 -0.20787,0.0255 -0.20685,0.0328 -0.20558,0.0399 -0.20405,0.0471 -0.2023,0.0542 -0.20028,0.0613 -0.19801,0.0681 -0.19552,0.0751 -0.19278,0.0818 -0.18981,0.0885 -0.1866,0.0951 L 3,-85.1962 l -0.1795,0.1079 -0.17565,0.1141 -0.17155,0.1201 -0.16725,0.126 -0.16277,0.1318 -0.15805,0.1374 -0.15317,0.1429 -0.14808,0.1481 -0.14284,0.1531 -0.13739,0.1581 -0.13181,0.1627 -0.12604,0.1673 -0.12011,0.1716 -0.114077,0.1756 -0.107865,0.1795 -0.101532,0.1832 -0.095077,0.1866 -0.088501,0.1898 -0.081833,0.1928 -0.075058,0.1955 -0.068176,0.198 -0.061234,0.2003 -0.054199,0.2023 -0.047119,0.204 -0.039963,0.2056 -0.0327606,0.2069 -0.0255127,0.2078 -0.0182648,0.2087 -0.01095579,0.2091 L 0,-80 v 74 l 0.00366211,0.2094 0.01095579,0.20913 0.0182648,0.20864 0.0255127,0.20787 0.0327606,0.20685 0.039963,0.20558 0.047119,0.20405 0.054199,0.2023 0.061234,0.20028 0.068176,0.19801 0.075058,0.19552 0.081833,0.19278 0.088501,0.18981 0.095077,0.1866 L 0.803848,-3 l 0.107865,0.1795 0.114077,0.17565 0.12011,0.17155 0.12604,0.16725 0.13181,0.16277 0.13739,0.15805 0.14284,0.15317 0.14808,0.14808 0.15317,0.14284 0.15805,0.13739 0.16277,0.13181 0.16725,0.12604 0.17155,0.12011 0.17565,0.114077 0.1795,0.107865 0.18318,0.101532 0.1866,0.095077 0.18981,0.088501 0.19278,0.081833 0.19552,0.075058 0.19801,0.068176 0.20028,0.061234 0.2023,0.054199 0.20405,0.047119 0.20558,0.039963 0.20685,0.0327606 0.20787,0.0255127 0.20864,0.0182648 L 5.7906,-0.00366211 6,0 h 156 z"
       id="path26853"
       style="fill:none;stroke:#0000ff;stroke-width:0.01;stroke-dasharray:none" />
  </g>
  <g
     id="g30156">
    <path
       style="fill:#000000;fill-rule:evenodd;stroke:none;stroke-width:0.264583px;stroke-linecap:butt;stroke-linejoin:miter;stroke-opacity:1"
       d="m 19.030834,-11.912502 3,5.0000016 3,-5.0000016 z"
       id="path29276"
       sodipodi:nodetypes="cccc" />
    <path
       style="fill:#000000;fill-rule:evenodd;stroke:none;stroke-width:0.264583px;stroke-linecap:butt;stroke-linejoin:miter;stroke-opacity:1"
       d="m 39.772168,-6.9125004 3,-5.0000016 3,5.0000016 z"
       id="path30053"
       sodipodi:nodetypes="cccc" />
    <path
       style="fill:#000000;fill-rule:evenodd;stroke:none;stroke-width:0.264583px;stroke-linecap:butt;stroke-linejoin:miter;stroke-opacity:1"
       d="m 124.07127,-11.912502 3,5.0000016 3,-5.0000016 z"
       id="path30055"
       sodipodi:nodetypes="cccc" />
    <path
       style="fill:#000000;fill-rule:evenodd;stroke:none;stroke-width:0.264583px;stroke-linecap:butt;stroke-linejoin:miter;stroke-opacity:1"
       d="m 143.65044,-6.9125004 3,-5.0000016 3,5.0000016 z"
       id="path30057"
       sodipodi:nodetypes="cccc" />
  </g>
</svg>
